<?xml version="1.0" standalone="no"?>
<!DOCTYPE svg PUBLIC "-//W3C//DTD SVG 20010904//EN"
 "http://www.w3.org/TR/2001/REC-SVG-20010904/DTD/svg10.dtd">
<svg version="1.0" xmlns="http://www.w3.org/2000/svg"
 width="512.000000pt" height="512.000000pt" viewBox="0 0 512.000000 512.000000"
 preserveAspectRatio="xMidYMid meet">
<metadata>
Created by potrace 1.11, written by Peter Selinger 2001-2013
</metadata>
<g transform="translate(0.000000,512.000000) scale(0.100000,-0.100000)"
fill="#000000" stroke="none">
<path d="M2368 4909 c-128 -10 -254 -31 -398 -65 -322 -78 -690 -274 -963
-512 -376 -327 -656 -805 -751 -1282 -70 -352 -81 -700 -30 -1000 100 -593
428 -1134 909 -1495 422 -317 896 -475 1425 -475 529 0 1004 159 1425 476 431
325 738 786 870 1309 50 201 68 350 68 575 0 363 -62 730 -169 989 -228 551
-634 990 -1149 1241 -311 152 -540 214 -875 240 -150 11 -206 11 -362 -1z
m-764 -614 c117 -34 243 -145 298 -261 84 -179 72 -437 -30 -641 -21 -43 -86
-150 -144 -238 -176 -267 -314 -525 -380 -705 -28 -75 -31 -98 -32 -195 -1
-94 2 -115 20 -145 40 -70 108 -74 186 -12 44 34 190 202 449 512 290 348 426
467 664 585 166 82 260 105 422 105 192 -1 330 -46 465 -154 152 -121 264
-338 302 -586 l11 -75 243 -3 242 -2 0 -240 0 -240 -240 0 -239 0 -6 -32 c-3
-18 -12 -80 -20 -138 -49 -342 -175 -615 -368 -796 -163 -153 -327 -223 -527
-224 -178 0 -315 55 -441 180 -77 77 -110 127 -150 227 -20 51 -23 75 -23 193
1 124 3 142 32 226 103 299 323 545 617 690 117 57 219 93 328 114 75 15 73
11 56 109 -15 85 -32 123 -75 170 -59 66 -111 85 -239 85 -101 1 -114 -1 -163
-26 -179 -92 -358 -267 -671 -653 -363 -446 -503 -548 -756 -549 -145 0 -244
34 -359 122 -112 86 -194 224 -227 384 -45 220 -9 425 130 728 68 150 212 399
328 569 145 211 199 332 174 387 -33 74 -116 43 -270 -102 l-102 -97 -67 65
c-37 36 -114 111 -171 166 l-104 100 119 119 c65 66 139 133 164 150 204 136
383 178 554 128z"/>
<path d="M3260 1936 c-151 -53 -289 -151 -372 -264 -66 -89 -102 -177 -103
-249 0 -57 3 -65 35 -98 137 -141 368 23 468 335 20 61 41 159 57 258 8 50 6
51 -85 18z"/>
</g>
</svg>
